{
    "asset" : {
        "generator" : "Khronos glTF Blender I/O v3.3.32",
        "version" : "2.0"
    },
    "extensionsUsed" : [
        "KHR_materials_specular",
        "KHR_materials_ior"
    ],
    "scene" : 0,
    "scenes" : [
        {
            "name" : "Scene",
            "nodes" : [
                0,
                1,
                2,
                3,
                4,
                5,
                6,
                7
            ]
        }
    ],
    "nodes" : [
        {
            "mesh" : 0,
            "name" : "Map-Japan",
            "rotation" : [
                0.7071068286895752,
                0,
                0,
                0.7071068286895752
            ],
            "scale" : [
                191.16836547851562,
                191.16836547851562,
                191.16836547851562
            ],
            "translation" : [
                1.8949012756347656,
                12.987491607666016,
                4.974316120147705
            ]
        },
        {
            "mesh" : 1,
            "name" : "AFOVOS",
            "rotation" : [
                0.7069991230964661,
                0,
                -0.012344259768724442,
                0.7071067094802856
            ],
            "scale" : [
                0.3278942108154297,
                0.3278942108154297,
                0.3278941214084625
            ],
            "translation" : [
                -7.270076751708984,
                14.28116226196289,
                6.886000633239746
            ]
        },
        {
            "mesh" : 2,
            "name" : "Text",
            "rotation" : [
                0.7069991230964661,
                0,
                -0.012344259768724442,
                0.7071067094802856
            ],
            "scale" : [
                0.3278942108154297,
                0.3278942108154297,
                0.3278941214084625
            ],
            "translation" : [
                -7.270076751708984,
                14.838582992553711,
                6.886000633239746
            ]
        },
        {
            "mesh" : 3,
            "name" : "Cube.001",
            "rotation" : [
                0.5872223973274231,
                -0.7431201338768005,
                0.027196800336241722,
                0.3196917176246643
            ],
            "scale" : [
                0.00477920938283205,
                2.951639413833618,
                0.00477920938283205
            ],
            "translation" : [
                -2.893482208251953,
                13.29150390625,
                6.044858932495117
            ]
        },
        {
            "mesh" : 4,
            "name" : "Text.001",
            "rotation" : [
                0.7069991230964661,
                0,
                -0.012344259768724442,
                0.7071067094802856
            ],
            "scale" : [
                0.3457094430923462,
                0.34570932388305664,
                0.34570935368537903
            ],
            "translation" : [
                -2.682037353515625,
                16.871013641357422,
                6.312495231628418
            ]
        },
        {
            "mesh" : 5,
            "name" : "\u039cARIA PRINCESS",
            "rotation" : [
                0.7069991230964661,
                0,
                -0.012344259768724442,
                0.7071067094802856
            ],
            "scale" : [
                0.3457094430923462,
                0.34570932388305664,
                0.34570935368537903
            ],
            "translation" : [
                -2.682037353515625,
                16.283306121826172,
                6.312495231628418
            ]
        },
        {
            "mesh" : 6,
            "name" : "KA\u03a0\u03a4\u0391\u0399\u039d \u0399\u03a9\u0391\u039d\u039d\u0397\u03a3",
            "rotation" : [
                0.7069991230964661,
                0,
                -0.012344259768724442,
                0.7071067094802856
            ],
            "scale" : [
                0.3457094430923462,
                0.34570932388305664,
                0.34570935368537903
            ],
            "translation" : [
                -2.682037353515625,
                15.86845588684082,
                6.312495231628418
            ]
        },
        {
            "mesh" : 7,
            "name" : "Cube",
            "rotation" : [
                -0.0051290178671479225,
                -0.20107513666152954,
                -0.0010528361890465021,
                0.9795618057250977
            ],
            "scale" : [
                0.00477920938283205,
                1.8887441158294678,
                0.004779210779815912
            ],
            "translation" : [
                0.5475502014160156,
                14.438514709472656,
                5.471354007720947
            ]
        }
    ],
    "materials" : [
        {
            "doubleSided" : true,
            "name" : "SVGMat.3180",
            "pbrMetallicRoughness" : {
                "baseColorFactor" : [
                    1,
                    1,
                    1,
                    1
                ],
                "metallicFactor" : 0,
                "roughnessFactor" : 0.4000000059604645
            }
        },
        {
            "doubleSided" : true,
            "name" : "Material",
            "pbrMetallicRoughness" : {
                "baseColorFactor" : [
                    0.800000011920929,
                    0.800000011920929,
                    0.800000011920929,
                    1
                ],
                "metallicFactor" : 0,
                "roughnessFactor" : 0.5
            }
        },
        {
            "doubleSided" : true,
            "extensions" : {
                "KHR_materials_specular" : {
                    "specularColorFactor" : [
                        0,
                        0,
                        0
                    ]
                },
                "KHR_materials_ior" : {
                    "ior" : 1.4500000476837158
                }
            },
            "name" : "Global(1):0:0:0",
            "pbrMetallicRoughness" : {
                "baseColorFactor" : [
                    0.9999989867210388,
                    0.0009836669778451324,
                    0.000987089006230235,
                    1
                ],
                "metallicFactor" : 0
            }
        }
    ],
    "meshes" : [
        {
            "name" : "Curve.3179",
            "primitives" : [
                {
                    "attributes" : {
                        "POSITION" : 0,
                        "NORMAL" : 1,
                        "TEXCOORD_0" : 2
                    },
                    "indices" : 3,
                    "material" : 0
                }
            ]
        },
        {
            "name" : "Text.001",
            "primitives" : [
                {
                    "attributes" : {
                        "POSITION" : 4,
                        "NORMAL" : 5,
                        "TEXCOORD_0" : 6
                    },
                    "indices" : 7,
                    "material" : 1
                }
            ]
        },
        {
            "name" : "Text",
            "primitives" : [
                {
                    "attributes" : {
                        "POSITION" : 8,
                        "NORMAL" : 9,
                        "TEXCOORD_0" : 10
                    },
                    "indices" : 11,
                    "material" : 2
                }
            ]
        },
        {
            "name" : "Cube.001",
            "primitives" : [
                {
                    "attributes" : {
                        "POSITION" : 12,
                        "NORMAL" : 13,
                        "TEXCOORD_0" : 14
                    },
                    "indices" : 15,
                    "material" : 2
                }
            ]
        },
        {
            "name" : "Text.004",
            "primitives" : [
                {
                    "attributes" : {
                        "POSITION" : 16,
                        "NORMAL" : 17,
                        "TEXCOORD_0" : 18
                    },
                    "indices" : 19,
                    "material" : 2
                }
            ]
        },
        {
            "name" : "Text.005",
            "primitives" : [
                {
                    "attributes" : {
                        "POSITION" : 20,
                        "NORMAL" : 21,
                        "TEXCOORD_0" : 22
                    },
                    "indices" : 23,
                    "material" : 1
                }
            ]
        },
        {
            "name" : "Text.006",
            "primitives" : [
                {
                    "attributes" : {
                        "POSITION" : 24,
                        "NORMAL" : 25,
                        "TEXCOORD_0" : 26
                    },
                    "indices" : 27,
                    "material" : 1
                }
            ]
        },
        {
            "name" : "Cube",
            "primitives" : [
                {
                    "attributes" : {
                        "POSITION" : 28,
                        "NORMAL" : 29,
                        "TEXCOORD_0" : 30
                    },
                    "indices" : 15,
                    "material" : 2
                }
            ]
        }
    ],
    "accessors" : [
        {
            "bufferView" : 0,
            "componentType" : 5126,
            "count" : 134288,
            "max" : [
                0.098714180290699,
                0.0020000000949949026,
                0.05865602195262909
            ],
            "min" : [
                -0.053226079791784286,
                -0.0020000000949949026,
                -0.07023285329341888
            ],
            "type" : "VEC3"
        },
        {
            "bufferView" : 1,
            "componentType" : 5126,
            "count" : 134288,
            "type" : "VEC3"
        },
        {
            "bufferView" : 2,
            "componentType" : 5126,
            "count" : 134288,
            "type" : "VEC2"
        },
        {
            "bufferView" : 3,
            "componentType" : 5125,
            "count" : 206718,
            "type" : "SCALAR"
        },
        {
            "bufferView" : 4,
            "componentType" : 5126,
            "count" : 1641,
            "max" : [
                3.7692480087280273,
                0,
                0.01436588168144226
            ],
            "min" : [
                0.00044893380254507065,
                0,
                -0.619977593421936
            ],
            "type" : "VEC3"
        },
        {
            "bufferView" : 5,
            "componentType" : 5126,
            "count" : 1641,
            "type" : "VEC3"
        },
        {
            "bufferView" : 6,
            "componentType" : 5126,
            "count" : 1641,
            "type" : "VEC2"
        },
        {
            "bufferView" : 7,
            "componentType" : 5123,
            "count" : 3597,
            "type" : "SCALAR"
        },
        {
            "bufferView" : 8,
            "componentType" : 5126,
            "count" : 4112,
            "max" : [
                21.425689697265625,
                0,
                0.20453400909900665
            ],
            "min" : [
                0.1269521415233612,
                0,
                -0.7113350033760071
            ],
            "type" : "VEC3"
        },
        {
            "bufferView" : 9,
            "componentType" : 5126,
            "count" : 4112,
            "type" : "VEC3"
        },
        {
            "bufferView" : 10,
            "componentType" : 5126,
            "count" : 4112,
            "type" : "VEC2"
        },
        {
            "bufferView" : 11,
            "componentType" : 5123,
            "count" : 9075,
            "type" : "SCALAR"
        },
        {
            "bufferView" : 12,
            "componentType" : 5126,
            "count" : 24,
            "max" : [
                1,
                1,
                1
            ],
            "min" : [
                -1,
                -1,
                -1
            ],
            "type" : "VEC3"
        },
        {
            "bufferView" : 13,
            "componentType" : 5126,
            "count" : 24,
            "type" : "VEC3"
        },
        {
            "bufferView" : 14,
            "componentType" : 5126,
            "count" : 24,
            "type" : "VEC2"
        },
        {
            "bufferView" : 15,
            "componentType" : 5123,
            "count" : 36,
            "type" : "SCALAR"
        },
        {
            "bufferView" : 16,
            "componentType" : 5126,
            "count" : 4107,
            "max" : [
                21.00452995300293,
                0,
                0.20453400909900665
            ],
            "min" : [
                0.1269521415233612,
                0,
                -0.7113350033760071
            ],
            "type" : "VEC3"
        },
        {
            "bufferView" : 17,
            "componentType" : 5126,
            "count" : 4107,
            "type" : "VEC3"
        },
        {
            "bufferView" : 18,
            "componentType" : 5126,
            "count" : 4107,
            "type" : "VEC2"
        },
        {
            "bufferView" : 19,
            "componentType" : 5123,
            "count" : 9039,
            "type" : "SCALAR"
        },
        {
            "bufferView" : 20,
            "componentType" : 5126,
            "count" : 4515,
            "max" : [
                8.879012107849121,
                0,
                0.01391694787889719
            ],
            "min" : [
                0.026038162410259247,
                0,
                -0.619977593421936
            ],
            "type" : "VEC3"
        },
        {
            "bufferView" : 21,
            "componentType" : 5126,
            "count" : 4515,
            "type" : "VEC3"
        },
        {
            "bufferView" : 22,
            "componentType" : 5126,
            "count" : 4515,
            "type" : "VEC2"
        },
        {
            "bufferView" : 23,
            "componentType" : 5123,
            "count" : 10185,
            "type" : "SCALAR"
        },
        {
            "bufferView" : 24,
            "componentType" : 5126,
            "count" : 4231,
            "max" : [
                7.714927673339844,
                0,
                0.01391694787889719
            ],
            "min" : [
                0.017957352101802826,
                0,
                -0.619977593421936
            ],
            "type" : "VEC3"
        },
        {
            "bufferView" : 25,
            "componentType" : 5126,
            "count" : 4231,
            "type" : "VEC3"
        },
        {
            "bufferView" : 26,
            "componentType" : 5126,
            "count" : 4231,
            "type" : "VEC2"
        },
        {
            "bufferView" : 27,
            "componentType" : 5123,
            "count" : 9540,
            "type" : "SCALAR"
        },
        {
            "bufferView" : 28,
            "componentType" : 5126,
            "count" : 24,
            "max" : [
                1,
                1,
                1
            ],
            "min" : [
                -1,
                -1,
                -1
            ],
            "type" : "VEC3"
        },
        {
            "bufferView" : 29,
            "componentType" : 5126,
            "count" : 24,
            "type" : "VEC3"
        },
        {
            "bufferView" : 30,
            "componentType" : 5126,
            "count" : 24,
            "type" : "VEC2"
        }
    ],
    "bufferViews" : [
        {
            "buffer" : 0,
            "byteLength" : 1611456,
            "byteOffset" : 0,
            "target" : 34962
        },
        {
            "buffer" : 0,
            "byteLength" : 1611456,
            "byteOffset" : 1611456,
            "target" : 34962
        },
        {
            "buffer" : 0,
            "byteLength" : 1074304,
            "byteOffset" : 3222912,
            "target" : 34962
        },
        {
            "buffer" : 0,
            "byteLength" : 826872,
            "byteOffset" : 4297216,
            "target" : 34963
        },
        {
            "buffer" : 0,
            "byteLength" : 19692,
            "byteOffset" : 5124088,
            "target" : 34962
        },
        {
            "buffer" : 0,
            "byteLength" : 19692,
            "byteOffset" : 5143780,
            "target" : 34962
        },
        {
            "buffer" : 0,
            "byteLength" : 13128,
            "byteOffset" : 5163472,
            "target" : 34962
        },
        {
            "buffer" : 0,
            "byteLength" : 7194,
            "byteOffset" : 5176600,
            "target" : 34963
        },
        {
            "buffer" : 0,
            "byteLength" : 49344,
            "byteOffset" : 5183796,
            "target" : 34962
        },
        {
            "buffer" : 0,
            "byteLength" : 49344,
            "byteOffset" : 5233140,
            "target" : 34962
        },
        {
            "buffer" : 0,
            "byteLength" : 32896,
            "byteOffset" : 5282484,
            "target" : 34962
        },
        {
            "buffer" : 0,
            "byteLength" : 18150,
            "byteOffset" : 5315380,
            "target" : 34963
        },
        {
            "buffer" : 0,
            "byteLength" : 288,
            "byteOffset" : 5333532,
            "target" : 34962
        },
        {
            "buffer" : 0,
            "byteLength" : 288,
            "byteOffset" : 5333820,
            "target" : 34962
        },
        {
            "buffer" : 0,
            "byteLength" : 192,
            "byteOffset" : 5334108,
            "target" : 34962
        },
        {
            "buffer" : 0,
            "byteLength" : 72,
            "byteOffset" : 5334300,
            "target" : 34963
        },
        {
            "buffer" : 0,
            "byteLength" : 49284,
            "byteOffset" : 5334372,
            "target" : 34962
        },
        {
            "buffer" : 0,
            "byteLength" : 49284,
            "byteOffset" : 5383656,
            "target" : 34962
        },
        {
            "buffer" : 0,
            "byteLength" : 32856,
            "byteOffset" : 5432940,
            "target" : 34962
        },
        {
            "buffer" : 0,
            "byteLength" : 18078,
            "byteOffset" : 5465796,
            "target" : 34963
        },
        {
            "buffer" : 0,
            "byteLength" : 54180,
            "byteOffset" : 5483876,
            "target" : 34962
        },
        {
            "buffer" : 0,
            "byteLength" : 54180,
            "byteOffset" : 5538056,
            "target" : 34962
        },
        {
            "buffer" : 0,
            "byteLength" : 36120,
            "byteOffset" : 5592236,
            "target" : 34962
        },
        {
            "buffer" : 0,
            "byteLength" : 20370,
            "byteOffset" : 5628356,
            "target" : 34963
        },
        {
            "buffer" : 0,
            "byteLength" : 50772,
            "byteOffset" : 5648728,
            "target" : 34962
        },
        {
            "buffer" : 0,
            "byteLength" : 50772,
            "byteOffset" : 5699500,
            "target" : 34962
        },
        {
            "buffer" : 0,
            "byteLength" : 33848,
            "byteOffset" : 5750272,
            "target" : 34962
        },
        {
            "buffer" : 0,
            "byteLength" : 19080,
            "byteOffset" : 5784120,
            "target" : 34963
        },
        {
            "buffer" : 0,
            "byteLength" : 288,
            "byteOffset" : 5803200,
            "target" : 34962
        },
        {
            "buffer" : 0,
            "byteLength" : 288,
            "byteOffset" : 5803488,
            "target" : 34962
        },
        {
            "buffer" : 0,
            "byteLength" : 192,
            "byteOffset" : 5803776,
            "target" : 34962
        }
    ],
    "buffers" : [
        {
            "byteLength" : 5803968,
            "uri" : "MARU-AR_model.bin"
        }
    ]
}
